<mxfile host="app.diagrams.net" agent="Mozilla/5.0 (X11; Linux x86_64) AppleWebKit/537.36 (KHTML, like Gecko) Chrome/136.0.0.0 Safari/537.36" version="27.0.3" pages="3">
  <diagram name="algo_v1" id="71HnFJK430C_7FDIOIWX">
    <mxGraphModel dx="949" dy="551" grid="1" gridSize="10" guides="1" tooltips="1" connect="1" arrows="1" fold="1" page="1" pageScale="1" pageWidth="850" pageHeight="1100" math="0" shadow="0">
      <root>
        <mxCell id="0" />
        <mxCell id="1" parent="0" />
        <mxCell id="FpjqDl7yzt5mH1No-ecy-1" value="read frame-by-frame SITI values from siti-tools" style="ellipse;whiteSpace=wrap;html=1;" parent="1" vertex="1">
          <mxGeometry x="390" y="40" width="80" height="80" as="geometry" />
        </mxCell>
        <mxCell id="FpjqDl7yzt5mH1No-ecy-5" value="" style="edgeStyle=orthogonalEdgeStyle;rounded=0;orthogonalLoop=1;jettySize=auto;html=1;curved=1;" parent="1" source="FpjqDl7yzt5mH1No-ecy-2" target="FpjqDl7yzt5mH1No-ecy-4" edge="1">
          <mxGeometry relative="1" as="geometry" />
        </mxCell>
        <mxCell id="FpjqDl7yzt5mH1No-ecy-6" value="1" style="edgeLabel;html=1;align=center;verticalAlign=middle;resizable=0;points=[];" parent="FpjqDl7yzt5mH1No-ecy-5" vertex="1" connectable="0">
          <mxGeometry x="-0.125" relative="1" as="geometry">
            <mxPoint as="offset" />
          </mxGeometry>
        </mxCell>
        <mxCell id="FpjqDl7yzt5mH1No-ecy-8" value="" style="edgeStyle=orthogonalEdgeStyle;rounded=0;orthogonalLoop=1;jettySize=auto;html=1;" parent="1" source="FpjqDl7yzt5mH1No-ecy-2" target="FpjqDl7yzt5mH1No-ecy-7" edge="1">
          <mxGeometry relative="1" as="geometry" />
        </mxCell>
        <mxCell id="voDdZIROr1WUxbnYvY6X-16" value="0" style="edgeLabel;html=1;align=center;verticalAlign=middle;resizable=0;points=[];" parent="FpjqDl7yzt5mH1No-ecy-8" vertex="1" connectable="0">
          <mxGeometry x="-0.125" y="-1" relative="1" as="geometry">
            <mxPoint as="offset" />
          </mxGeometry>
        </mxCell>
        <mxCell id="FpjqDl7yzt5mH1No-ecy-2" value="if max_ti is exceeded" style="ellipse;whiteSpace=wrap;html=1;" parent="1" vertex="1">
          <mxGeometry x="390" y="315" width="80" height="80" as="geometry" />
        </mxCell>
        <mxCell id="FpjqDl7yzt5mH1No-ecy-4" value="save frame number in frame indices" style="ellipse;whiteSpace=wrap;html=1;" parent="1" vertex="1">
          <mxGeometry x="570" y="315" width="80" height="80" as="geometry" />
        </mxCell>
        <mxCell id="voDdZIROr1WUxbnYvY6X-14" value="" style="edgeStyle=orthogonalEdgeStyle;rounded=0;orthogonalLoop=1;jettySize=auto;html=1;curved=1;" parent="1" source="FpjqDl7yzt5mH1No-ecy-7" target="voDdZIROr1WUxbnYvY6X-13" edge="1">
          <mxGeometry relative="1" as="geometry" />
        </mxCell>
        <mxCell id="voDdZIROr1WUxbnYvY6X-17" value="0" style="edgeLabel;html=1;align=center;verticalAlign=middle;resizable=0;points=[];" parent="voDdZIROr1WUxbnYvY6X-14" vertex="1" connectable="0">
          <mxGeometry x="-0.2957" y="-27" relative="1" as="geometry">
            <mxPoint as="offset" />
          </mxGeometry>
        </mxCell>
        <mxCell id="voDdZIROr1WUxbnYvY6X-19" value="" style="edgeStyle=orthogonalEdgeStyle;rounded=0;orthogonalLoop=1;jettySize=auto;html=1;" parent="1" source="FpjqDl7yzt5mH1No-ecy-7" target="voDdZIROr1WUxbnYvY6X-18" edge="1">
          <mxGeometry relative="1" as="geometry" />
        </mxCell>
        <mxCell id="voDdZIROr1WUxbnYvY6X-21" value="1" style="edgeLabel;html=1;align=center;verticalAlign=middle;resizable=0;points=[];" parent="voDdZIROr1WUxbnYvY6X-19" vertex="1" connectable="0">
          <mxGeometry x="-0.08" y="-2" relative="1" as="geometry">
            <mxPoint as="offset" />
          </mxGeometry>
        </mxCell>
        <mxCell id="FpjqDl7yzt5mH1No-ecy-7" value="if cumsum threshold is exceeded" style="ellipse;whiteSpace=wrap;html=1;" parent="1" vertex="1">
          <mxGeometry x="390" y="475" width="80" height="80" as="geometry" />
        </mxCell>
        <mxCell id="FpjqDl7yzt5mH1No-ecy-11" value="read next TI value" style="ellipse;whiteSpace=wrap;html=1;" parent="1" vertex="1">
          <mxGeometry x="390" y="165" width="80" height="80" as="geometry" />
        </mxCell>
        <mxCell id="FpjqDl7yzt5mH1No-ecy-13" value="" style="endArrow=classic;html=1;rounded=0;entryX=0.5;entryY=0;entryDx=0;entryDy=0;exitX=0.5;exitY=1;exitDx=0;exitDy=0;curved=1;" parent="1" source="FpjqDl7yzt5mH1No-ecy-11" target="FpjqDl7yzt5mH1No-ecy-2" edge="1">
          <mxGeometry width="50" height="50" relative="1" as="geometry">
            <mxPoint x="450" y="475" as="sourcePoint" />
            <mxPoint x="500" y="425" as="targetPoint" />
          </mxGeometry>
        </mxCell>
        <mxCell id="FpjqDl7yzt5mH1No-ecy-17" value="1" style="edgeLabel;html=1;align=center;verticalAlign=middle;resizable=0;points=[];" parent="FpjqDl7yzt5mH1No-ecy-13" vertex="1" connectable="0">
          <mxGeometry x="-0.1714" y="-2" relative="1" as="geometry">
            <mxPoint as="offset" />
          </mxGeometry>
        </mxCell>
        <mxCell id="FpjqDl7yzt5mH1No-ecy-16" value="" style="endArrow=classic;html=1;rounded=0;entryX=1;entryY=0.5;entryDx=0;entryDy=0;exitX=0.5;exitY=0;exitDx=0;exitDy=0;curved=1;" parent="1" source="FpjqDl7yzt5mH1No-ecy-4" target="FpjqDl7yzt5mH1No-ecy-11" edge="1">
          <mxGeometry width="50" height="50" relative="1" as="geometry">
            <mxPoint x="450" y="475" as="sourcePoint" />
            <mxPoint x="500" y="425" as="targetPoint" />
            <Array as="points">
              <mxPoint x="610" y="205" />
            </Array>
          </mxGeometry>
        </mxCell>
        <mxCell id="FpjqDl7yzt5mH1No-ecy-18" value="" style="endArrow=classic;html=1;rounded=0;entryX=0.5;entryY=0;entryDx=0;entryDy=0;exitX=0.5;exitY=1;exitDx=0;exitDy=0;" parent="1" source="FpjqDl7yzt5mH1No-ecy-1" target="FpjqDl7yzt5mH1No-ecy-11" edge="1">
          <mxGeometry width="50" height="50" relative="1" as="geometry">
            <mxPoint x="400" y="400" as="sourcePoint" />
            <mxPoint x="450" y="350" as="targetPoint" />
          </mxGeometry>
        </mxCell>
        <mxCell id="voDdZIROr1WUxbnYvY6X-3" value="" style="edgeStyle=orthogonalEdgeStyle;rounded=0;orthogonalLoop=1;jettySize=auto;html=1;startArrow=classic;startFill=0;endArrow=none;" parent="1" source="voDdZIROr1WUxbnYvY6X-1" target="voDdZIROr1WUxbnYvY6X-2" edge="1">
          <mxGeometry relative="1" as="geometry" />
        </mxCell>
        <mxCell id="voDdZIROr1WUxbnYvY6X-5" value="" style="edgeStyle=orthogonalEdgeStyle;rounded=0;orthogonalLoop=1;jettySize=auto;html=1;" parent="1" source="voDdZIROr1WUxbnYvY6X-1" target="voDdZIROr1WUxbnYvY6X-4" edge="1">
          <mxGeometry relative="1" as="geometry" />
        </mxCell>
        <mxCell id="voDdZIROr1WUxbnYvY6X-1" value="get frame-by-frame SITI values from siti-tools" style="ellipse;whiteSpace=wrap;html=1;" parent="1" vertex="1">
          <mxGeometry x="60" y="140" width="80" height="80" as="geometry" />
        </mxCell>
        <mxCell id="voDdZIROr1WUxbnYvY6X-2" value="get .h265 file" style="ellipse;whiteSpace=wrap;html=1;" parent="1" vertex="1">
          <mxGeometry x="60" y="20" width="80" height="80" as="geometry" />
        </mxCell>
        <mxCell id="voDdZIROr1WUxbnYvY6X-7" value="" style="edgeStyle=orthogonalEdgeStyle;rounded=0;orthogonalLoop=1;jettySize=auto;html=1;" parent="1" source="voDdZIROr1WUxbnYvY6X-4" target="voDdZIROr1WUxbnYvY6X-6" edge="1">
          <mxGeometry relative="1" as="geometry" />
        </mxCell>
        <mxCell id="voDdZIROr1WUxbnYvY6X-4" value="convert entire .h265 to .mp4" style="ellipse;whiteSpace=wrap;html=1;" parent="1" vertex="1">
          <mxGeometry x="60" y="260" width="80" height="80" as="geometry" />
        </mxCell>
        <mxCell id="voDdZIROr1WUxbnYvY6X-9" value="" style="edgeStyle=orthogonalEdgeStyle;rounded=0;orthogonalLoop=1;jettySize=auto;html=1;" parent="1" source="voDdZIROr1WUxbnYvY6X-6" target="voDdZIROr1WUxbnYvY6X-8" edge="1">
          <mxGeometry relative="1" as="geometry" />
        </mxCell>
        <mxCell id="voDdZIROr1WUxbnYvY6X-6" value="get frame indices from algo_v1" style="ellipse;whiteSpace=wrap;html=1;" parent="1" vertex="1">
          <mxGeometry x="60" y="380" width="80" height="80" as="geometry" />
        </mxCell>
        <mxCell id="voDdZIROr1WUxbnYvY6X-11" value="" style="edgeStyle=orthogonalEdgeStyle;rounded=0;orthogonalLoop=1;jettySize=auto;html=1;" parent="1" source="voDdZIROr1WUxbnYvY6X-8" target="voDdZIROr1WUxbnYvY6X-10" edge="1">
          <mxGeometry relative="1" as="geometry" />
        </mxCell>
        <mxCell id="voDdZIROr1WUxbnYvY6X-8" value="export .jpg images from frame indices and .mp4 file" style="ellipse;whiteSpace=wrap;html=1;" parent="1" vertex="1">
          <mxGeometry x="60" y="500" width="80" height="80" as="geometry" />
        </mxCell>
        <mxCell id="voDdZIROr1WUxbnYvY6X-10" value="(optional)&lt;br&gt;generate .mp4 video from images" style="ellipse;whiteSpace=wrap;html=1;" parent="1" vertex="1">
          <mxGeometry x="60" y="620" width="80" height="80" as="geometry" />
        </mxCell>
        <mxCell id="voDdZIROr1WUxbnYvY6X-13" value="add ti value to cumsum" style="ellipse;whiteSpace=wrap;html=1;" parent="1" vertex="1">
          <mxGeometry x="240" y="315" width="80" height="80" as="geometry" />
        </mxCell>
        <mxCell id="voDdZIROr1WUxbnYvY6X-15" value="" style="endArrow=classic;html=1;rounded=0;exitX=0.5;exitY=0;exitDx=0;exitDy=0;entryX=0;entryY=0.5;entryDx=0;entryDy=0;curved=1;" parent="1" source="voDdZIROr1WUxbnYvY6X-13" target="FpjqDl7yzt5mH1No-ecy-11" edge="1">
          <mxGeometry width="50" height="50" relative="1" as="geometry">
            <mxPoint x="400" y="380" as="sourcePoint" />
            <mxPoint x="450" y="330" as="targetPoint" />
            <Array as="points">
              <mxPoint x="280" y="210" />
            </Array>
          </mxGeometry>
        </mxCell>
        <mxCell id="voDdZIROr1WUxbnYvY6X-20" value="" style="edgeStyle=orthogonalEdgeStyle;rounded=0;orthogonalLoop=1;jettySize=auto;html=1;" parent="1" source="voDdZIROr1WUxbnYvY6X-18" target="FpjqDl7yzt5mH1No-ecy-4" edge="1">
          <mxGeometry relative="1" as="geometry" />
        </mxCell>
        <mxCell id="voDdZIROr1WUxbnYvY6X-18" value="reset cumsum" style="ellipse;whiteSpace=wrap;html=1;" parent="1" vertex="1">
          <mxGeometry x="570" y="475" width="80" height="80" as="geometry" />
        </mxCell>
        <mxCell id="voDdZIROr1WUxbnYvY6X-22" value="algo_v1" style="text;html=1;align=center;verticalAlign=middle;resizable=0;points=[];autosize=1;strokeColor=none;fillColor=none;fontSize=16;" parent="1" vertex="1">
          <mxGeometry x="240" y="60" width="80" height="30" as="geometry" />
        </mxCell>
        <mxCell id="voDdZIROr1WUxbnYvY6X-23" value="" style="rounded=0;whiteSpace=wrap;html=1;fillColor=none;" parent="1" vertex="1">
          <mxGeometry x="210" y="20" width="500" height="570" as="geometry" />
        </mxCell>
      </root>
    </mxGraphModel>
  </diagram>
  <diagram name="algo_v2" id="Ry4OViJDhP3fVdzH1UtA">
    <mxGraphModel dx="1376" dy="799" grid="1" gridSize="10" guides="1" tooltips="1" connect="1" arrows="1" fold="1" page="1" pageScale="1" pageWidth="850" pageHeight="1100" math="0" shadow="0">
      <root>
        <mxCell id="WdvCV9NkCTOlopkuxPqA-0" />
        <mxCell id="WdvCV9NkCTOlopkuxPqA-1" parent="WdvCV9NkCTOlopkuxPqA-0" />
        <mxCell id="hJqbMsXYIiBF0uI2xasX-1" value="" style="edgeStyle=orthogonalEdgeStyle;rounded=0;orthogonalLoop=1;jettySize=auto;html=1;" edge="1" parent="WdvCV9NkCTOlopkuxPqA-1" source="WdvCV9NkCTOlopkuxPqA-2" target="hJqbMsXYIiBF0uI2xasX-0">
          <mxGeometry relative="1" as="geometry" />
        </mxCell>
        <mxCell id="WdvCV9NkCTOlopkuxPqA-2" value="generate&amp;nbsp;" style="ellipse;whiteSpace=wrap;html=1;" vertex="1" parent="WdvCV9NkCTOlopkuxPqA-1">
          <mxGeometry x="180" y="90" width="80" height="80" as="geometry" />
        </mxCell>
        <mxCell id="hJqbMsXYIiBF0uI2xasX-0" value="" style="ellipse;whiteSpace=wrap;html=1;" vertex="1" parent="WdvCV9NkCTOlopkuxPqA-1">
          <mxGeometry x="340" y="90" width="80" height="80" as="geometry" />
        </mxCell>
      </root>
    </mxGraphModel>
  </diagram>
  <diagram id="9GWY4Y-SrS1t8kT5G_4U" name="algo1_illustration">
    <mxGraphModel dx="1376" dy="799" grid="1" gridSize="10" guides="1" tooltips="1" connect="1" arrows="1" fold="1" page="1" pageScale="1" pageWidth="1100" pageHeight="850" math="0" shadow="0">
      <root>
        <mxCell id="0" />
        <mxCell id="1" parent="0" />
        <mxCell id="XwoEQE9yPBcxFCElke__-1" value="" style="rounded=0;whiteSpace=wrap;html=1;" vertex="1" parent="1">
          <mxGeometry x="250.49609172937537" y="230" width="125" height="60" as="geometry" />
        </mxCell>
        <mxCell id="XwoEQE9yPBcxFCElke__-2" value="" style="endArrow=classic;html=1;rounded=0;startArrow=classic;startFill=1;" edge="1" parent="1">
          <mxGeometry width="50" height="50" relative="1" as="geometry">
            <mxPoint x="435.4960917293754" y="440" as="sourcePoint" />
            <mxPoint x="225.49609172937537" y="280" as="targetPoint" />
            <Array as="points">
              <mxPoint x="225.49609172937537" y="440" />
            </Array>
          </mxGeometry>
        </mxCell>
        <mxCell id="XwoEQE9yPBcxFCElke__-3" value="" style="endArrow=none;dashed=1;html=1;dashPattern=1 3;strokeWidth=2;rounded=0;" edge="1" parent="1">
          <mxGeometry width="50" height="50" relative="1" as="geometry">
            <mxPoint x="225.49609172937537" y="350" as="sourcePoint" />
            <mxPoint x="435.4960917293754" y="350" as="targetPoint" />
          </mxGeometry>
        </mxCell>
        <mxCell id="XwoEQE9yPBcxFCElke__-4" value="" style="rounded=0;whiteSpace=wrap;html=1;fillColor=#d5e8d4;strokeColor=#82b366;opacity=70;" vertex="1" parent="1">
          <mxGeometry x="235.49609172937537" y="400" width="20" height="40" as="geometry" />
        </mxCell>
        <mxCell id="XwoEQE9yPBcxFCElke__-5" value="" style="rounded=0;whiteSpace=wrap;html=1;fillColor=#d5e8d4;strokeColor=#82b366;opacity=70;" vertex="1" parent="1">
          <mxGeometry x="275.4960917293754" y="410" width="20" height="30" as="geometry" />
        </mxCell>
        <mxCell id="XwoEQE9yPBcxFCElke__-6" value="" style="rounded=0;whiteSpace=wrap;html=1;fillColor=#fff2cc;strokeColor=#d6b656;opacity=70;" vertex="1" parent="1">
          <mxGeometry x="275.4960917293754" y="370" width="20" height="40" as="geometry" />
        </mxCell>
        <mxCell id="XwoEQE9yPBcxFCElke__-7" value="" style="rounded=0;whiteSpace=wrap;html=1;fillColor=#d5e8d4;strokeColor=#82b366;opacity=70;" vertex="1" parent="1">
          <mxGeometry x="315.4960917293754" y="380" width="20" height="60" as="geometry" />
        </mxCell>
        <mxCell id="XwoEQE9yPBcxFCElke__-8" value="" style="rounded=0;whiteSpace=wrap;html=1;fillColor=#fff2cc;strokeColor=#d6b656;opacity=70;" vertex="1" parent="1">
          <mxGeometry x="315.4960917293754" y="310" width="20" height="70" as="geometry" />
        </mxCell>
        <mxCell id="XwoEQE9yPBcxFCElke__-9" value="" style="rounded=0;whiteSpace=wrap;html=1;fillColor=#d5e8d4;strokeColor=#82b366;opacity=70;" vertex="1" parent="1">
          <mxGeometry x="355.4960917293754" y="420" width="20" height="20" as="geometry" />
        </mxCell>
        <mxCell id="XwoEQE9yPBcxFCElke__-10" value="" style="endArrow=open;html=1;rounded=0;exitX=1;exitY=0.5;exitDx=0;exitDy=0;entryX=0;entryY=0.5;entryDx=0;entryDy=0;shadow=1;jumpSize=6;fillColor=#f5f5f5;strokeColor=#666666;endFill=0;dashed=1;" edge="1" parent="1" source="XwoEQE9yPBcxFCElke__-4" target="XwoEQE9yPBcxFCElke__-6">
          <mxGeometry width="50" height="50" relative="1" as="geometry">
            <mxPoint x="335.4960917293754" y="390" as="sourcePoint" />
            <mxPoint x="385.4960917293754" y="340" as="targetPoint" />
          </mxGeometry>
        </mxCell>
        <mxCell id="XwoEQE9yPBcxFCElke__-11" value="" style="endArrow=baseDash;html=1;rounded=0;startArrow=baseDash;startFill=0;endFill=0;entryX=1;entryY=0;entryDx=0;entryDy=0;exitX=1;exitY=1;exitDx=0;exitDy=0;shadow=1;jumpSize=6;fillColor=#f5f5f5;strokeColor=#666666;" edge="1" parent="1" source="XwoEQE9yPBcxFCElke__-4" target="XwoEQE9yPBcxFCElke__-4">
          <mxGeometry width="50" height="50" relative="1" as="geometry">
            <mxPoint x="425.4960917293754" y="390" as="sourcePoint" />
            <mxPoint x="475.4960917293754" y="340" as="targetPoint" />
          </mxGeometry>
        </mxCell>
        <mxCell id="XwoEQE9yPBcxFCElke__-12" value="" style="endArrow=baseDash;html=1;rounded=0;startArrow=baseDash;startFill=0;endFill=0;entryX=1;entryY=0;entryDx=0;entryDy=0;exitX=1;exitY=1;exitDx=0;exitDy=0;startSize=6;jumpSize=6;shadow=1;fillColor=#f5f5f5;strokeColor=#666666;" edge="1" parent="1" target="XwoEQE9yPBcxFCElke__-6">
          <mxGeometry width="50" height="50" relative="1" as="geometry">
            <mxPoint x="295.4960917293754" y="440" as="sourcePoint" />
            <mxPoint x="295.4960917293754" y="400" as="targetPoint" />
          </mxGeometry>
        </mxCell>
        <mxCell id="XwoEQE9yPBcxFCElke__-13" value="" style="endArrow=open;html=1;rounded=0;exitX=1;exitY=0.5;exitDx=0;exitDy=0;entryX=0;entryY=0.5;entryDx=0;entryDy=0;shadow=1;jumpSize=6;fillColor=#f5f5f5;strokeColor=#666666;endFill=0;dashed=1;" edge="1" parent="1" target="XwoEQE9yPBcxFCElke__-8">
          <mxGeometry width="50" height="50" relative="1" as="geometry">
            <mxPoint x="295.4960917293754" y="405" as="sourcePoint" />
            <mxPoint x="315.4960917293754" y="375" as="targetPoint" />
          </mxGeometry>
        </mxCell>
        <mxCell id="XwoEQE9yPBcxFCElke__-14" value="" style="endArrow=baseDash;html=1;rounded=0;startArrow=baseDash;startFill=0;endFill=0;entryX=1;entryY=0;entryDx=0;entryDy=0;exitX=1;exitY=1;exitDx=0;exitDy=0;startSize=6;jumpSize=6;shadow=1;fillColor=#f5f5f5;strokeColor=#666666;" edge="1" parent="1">
          <mxGeometry width="50" height="50" relative="1" as="geometry">
            <mxPoint x="315.09609172937536" y="380" as="sourcePoint" />
            <mxPoint x="315.09609172937536" y="310" as="targetPoint" />
          </mxGeometry>
        </mxCell>
        <mxCell id="XwoEQE9yPBcxFCElke__-15" value="" style="endArrow=baseDash;html=1;rounded=0;startArrow=baseDash;startFill=0;endFill=0;entryX=1;entryY=0;entryDx=0;entryDy=0;exitX=1;exitY=1;exitDx=0;exitDy=0;shadow=1;jumpSize=6;fillColor=#f5f5f5;strokeColor=#666666;" edge="1" parent="1">
          <mxGeometry width="50" height="50" relative="1" as="geometry">
            <mxPoint x="275.09609172937536" y="410" as="sourcePoint" />
            <mxPoint x="275.09609172937536" y="370" as="targetPoint" />
          </mxGeometry>
        </mxCell>
        <mxCell id="XwoEQE9yPBcxFCElke__-16" value="" style="rounded=0;whiteSpace=wrap;html=1;fillColor=#d5e8d4;strokeColor=#82b366;opacity=70;" vertex="1" parent="1">
          <mxGeometry x="395.4960917293754" y="330" width="20" height="110" as="geometry" />
        </mxCell>
        <mxCell id="XwoEQE9yPBcxFCElke__-17" value="" style="rounded=0;whiteSpace=wrap;html=1;fillColor=#fff2cc;strokeColor=#d6b656;opacity=70;" vertex="1" parent="1">
          <mxGeometry x="395.4960917293754" y="310" width="20" height="20" as="geometry" />
        </mxCell>
        <mxCell id="XwoEQE9yPBcxFCElke__-18" value="" style="endArrow=baseDash;html=1;rounded=0;startArrow=baseDash;startFill=0;endFill=0;entryX=1;entryY=0;entryDx=0;entryDy=0;shadow=1;jumpSize=6;fillColor=#f5f5f5;strokeColor=#666666;exitX=1;exitY=1;exitDx=0;exitDy=0;" edge="1" parent="1" source="XwoEQE9yPBcxFCElke__-9" target="XwoEQE9yPBcxFCElke__-9">
          <mxGeometry width="50" height="50" relative="1" as="geometry">
            <mxPoint x="445.4960917293754" y="360" as="sourcePoint" />
            <mxPoint x="445.4960917293754" y="320" as="targetPoint" />
          </mxGeometry>
        </mxCell>
        <mxCell id="XwoEQE9yPBcxFCElke__-19" value="" style="endArrow=baseDash;html=1;rounded=0;startArrow=baseDash;startFill=0;endFill=0;entryX=0;entryY=0;entryDx=0;entryDy=0;shadow=1;jumpSize=6;fillColor=#f5f5f5;strokeColor=#666666;exitX=0;exitY=0;exitDx=0;exitDy=0;" edge="1" parent="1" source="XwoEQE9yPBcxFCElke__-16" target="XwoEQE9yPBcxFCElke__-17">
          <mxGeometry width="50" height="50" relative="1" as="geometry">
            <mxPoint x="435.4960917293754" y="330" as="sourcePoint" />
            <mxPoint x="435.4960917293754" y="310" as="targetPoint" />
          </mxGeometry>
        </mxCell>
        <mxCell id="XwoEQE9yPBcxFCElke__-20" value="" style="endArrow=openThin;html=1;rounded=0;exitX=1;exitY=0.5;exitDx=0;exitDy=0;entryX=0;entryY=0.5;entryDx=0;entryDy=0;shadow=1;jumpSize=6;fillColor=#f5f5f5;strokeColor=#666666;dashed=1;endFill=0;" edge="1" parent="1" source="XwoEQE9yPBcxFCElke__-9" target="XwoEQE9yPBcxFCElke__-17">
          <mxGeometry width="50" height="50" relative="1" as="geometry">
            <mxPoint x="465.4960917293754" y="360" as="sourcePoint" />
            <mxPoint x="485.4960917293754" y="300" as="targetPoint" />
          </mxGeometry>
        </mxCell>
        <mxCell id="XwoEQE9yPBcxFCElke__-21" value="Threshold" style="text;html=1;align=center;verticalAlign=middle;whiteSpace=wrap;rounded=0;" vertex="1" parent="1">
          <mxGeometry x="435.4960917293754" y="340" width="60" height="20" as="geometry" />
        </mxCell>
        <mxCell id="XwoEQE9yPBcxFCElke__-22" value="" style="rounded=0;whiteSpace=wrap;html=1;fillColor=#fff2cc;strokeColor=#d6b656;opacity=70;" vertex="1" parent="1">
          <mxGeometry x="259.8760917293754" y="240" width="15" height="10" as="geometry" />
        </mxCell>
        <mxCell id="XwoEQE9yPBcxFCElke__-23" value="Accumulated TI" style="text;html=1;align=center;verticalAlign=middle;whiteSpace=wrap;rounded=0;" vertex="1" parent="1">
          <mxGeometry x="278.6260917293754" y="235" width="87.5" height="20" as="geometry" />
        </mxCell>
        <mxCell id="XwoEQE9yPBcxFCElke__-24" value="" style="rounded=0;whiteSpace=wrap;html=1;fillColor=#d5e8d4;strokeColor=#82b366;opacity=70;" vertex="1" parent="1">
          <mxGeometry x="259.8760917293754" y="270" width="15" height="10" as="geometry" />
        </mxCell>
        <mxCell id="XwoEQE9yPBcxFCElke__-25" value="New TI value" style="text;html=1;align=center;verticalAlign=middle;whiteSpace=wrap;rounded=0;" vertex="1" parent="1">
          <mxGeometry x="274.8760917293754" y="265" width="80" height="20" as="geometry" />
        </mxCell>
        <mxCell id="XwoEQE9yPBcxFCElke__-26" value="&lt;font style=&quot;font-size: 9px;&quot;&gt;frame0/1 TI&lt;/font&gt;" style="text;html=1;align=center;verticalAlign=middle;whiteSpace=wrap;rounded=0;direction=east;rotation=65;" vertex="1" parent="1">
          <mxGeometry x="223.00609172937536" y="460" width="55.62" height="20" as="geometry" />
        </mxCell>
        <mxCell id="XwoEQE9yPBcxFCElke__-27" value="&lt;font style=&quot;font-size: 9px;&quot;&gt;frame1/2 TI&lt;/font&gt;" style="text;html=1;align=center;verticalAlign=middle;whiteSpace=wrap;rounded=0;direction=east;rotation=65;" vertex="1" parent="1">
          <mxGeometry x="265.49218345875073" y="460.00060217489624" width="55.62" height="20" as="geometry" />
        </mxCell>
        <mxCell id="XwoEQE9yPBcxFCElke__-28" value="&lt;font style=&quot;font-size: 9px;&quot;&gt;frame2/3 TI&lt;/font&gt;" style="text;html=1;align=center;verticalAlign=middle;whiteSpace=wrap;rounded=0;direction=east;rotation=65;" vertex="1" parent="1">
          <mxGeometry x="305.4921834587508" y="460.00060217489624" width="55.62" height="20" as="geometry" />
        </mxCell>
        <mxCell id="XwoEQE9yPBcxFCElke__-29" value="&lt;font style=&quot;font-size: 9px;&quot;&gt;frame3/4 TI&lt;/font&gt;" style="text;html=1;align=center;verticalAlign=middle;whiteSpace=wrap;rounded=0;direction=east;rotation=65;" vertex="1" parent="1">
          <mxGeometry x="345.4921834587508" y="460.00060217489624" width="55.62" height="20" as="geometry" />
        </mxCell>
        <mxCell id="XwoEQE9yPBcxFCElke__-30" value="&lt;font style=&quot;font-size: 9px;&quot;&gt;frame4/5 TI&lt;/font&gt;" style="text;html=1;align=center;verticalAlign=middle;whiteSpace=wrap;rounded=0;direction=east;rotation=65;" vertex="1" parent="1">
          <mxGeometry x="385.4921834587507" y="460.00060217489624" width="55.62" height="20" as="geometry" />
        </mxCell>
      </root>
    </mxGraphModel>
  </diagram>
</mxfile>
